# xmcd
# Copyright (C) 1995-1998 Ti Kan
#
# Track frame offsets:
#       150
#       105884
#       187260
#
# Disc length: 3538 seconds
#
# Revision: 0
# Processed by: cddbd v1.5.2PL0 Copyright (c) Steve Scherf et al.
# Submitted via: CD-Import v1.0
#
DISCID=1e0dd003
DTITLE=Andrew - 
DYEAR=1900
DGENRE=
TTITLE0=Lokalfilter Salzhaus 1
TTITLE1=Lokalfilter Salzhaus 2
TTITLE2=Lokalfilter Salzhaus 3
EXTD=
EXTT0=
EXTT1=
EXTT2=
PLAYORDER=
